# Blender v2.91.0 OBJ File: ''
# www.blender.org
mtllib Vibri.mtl
o vibri001
v 0.000000 2.135156 0.000000
v -0.048828 1.207417 -0.054932
v -0.073243 1.207417 -0.018311
v -0.073243 1.207417 0.018311
v -0.048828 1.207417 0.054932
v -0.024414 1.207417 0.073243
v 0.024414 1.207417 0.073243
v 0.048828 1.207417 0.054932
v 0.073243 1.207417 0.018311
v 0.073243 1.207417 -0.018311
v 0.048828 1.207417 -0.054932
v 0.024414 1.207417 -0.073243
v -0.024414 1.207417 -0.073243
l 1 2
l 2 3
l 1 4
l 4 5
l 1 6
l 6 7
l 1 8
l 8 9
l 1 10
l 10 11
l 1 3
l 1 13
l 1 5
l 1 7
l 1 9
l 1 11
l 1 12
l 12 13
o vibri002
v 0.000000 1.925572 0.000000
v -0.531009 2.169714 0.000000
v -1.000982 2.004918 0.000000
v -1.202399 1.876743 0.054932
v -1.239020 1.974400 0.067139
l 14 15
l 15 16
l 16 17
l 16 18
l 17 18
o vibri003
v -0.077183 0.000000 0.006043
v -0.211461 0.000000 -0.439516
v -0.211461 0.231935 -0.439516
l 19 20
l 19 21
l 20 21
o vibri004
v 0.071993 0.000000 0.000000
v 0.071993 0.585941 -0.244142
v 0.071993 1.220710 0.000000
l 22 23
l 23 24
o vibri005
v 0.000000 2.822092 0.250107
v 0.000000 2.877023 0.298936
v 0.000000 2.877023 0.359971
v 0.000000 2.822092 0.408800
v 0.000000 2.736642 0.408800
v 0.000000 2.681710 0.359971
v 0.000000 2.681710 0.298936
v 0.000000 2.736642 0.250107
v 0.000000 2.779367 0.103622
v 0.000000 2.974680 0.170761
v 0.000000 3.054026 0.329454
v 0.000000 2.974680 0.488146
v 0.000000 2.779367 0.555285
v 0.000000 2.584053 0.488146
v 0.000000 2.504707 0.329454
v 0.000000 2.584053 0.170761
v 0.000000 2.675606 0.152451
v 0.000000 3.023509 0.329454
v 0.000000 2.675606 0.506456
vn 1.0000 0.0000 0.0000
usemtl None
s off
f 41//1 42//1 43//1
l 25 26
l 26 27
l 27 28
l 28 29
l 29 30
l 30 31
l 25 32
l 32 33
l 25 34
l 26 35
l 27 36
l 28 37
l 29 38
l 30 39
l 31 40
l 25 33
l 26 34
l 27 35
l 28 36
l 31 32
l 29 37
l 30 38
l 33 34
l 31 39
l 34 35
l 32 40
l 35 36
l 33 40
l 36 37
l 37 38
l 38 39
l 39 40
o vibri006
v 0.000000 3.561011 -0.811772
v 0.000000 3.994363 -0.921636
v 0.000000 3.823464 -0.506595
v 0.000000 2.932346 -0.006104
l 46 47
l 44 45
l 45 46
l 44 47
o vibri007
v 0.000000 2.944553 0.006104
v 0.000000 3.927224 -0.299074
v 0.000000 4.342266 -0.134278
v 0.000000 3.963846 0.103760
l 50 51
l 48 49
l 49 50
l 48 51
o vibri008_vibri009
v 0.000000 1.922202 0.000000
v 0.531009 2.166344 0.000000
v 1.000982 2.001548 0.000000
v 1.202399 1.873373 -0.054932
v 1.239020 1.971030 -0.067139
l 52 53
l 53 54
l 54 55
l 54 56
l 55 56
o vibri009_vibri010
v 0.077183 0.000000 0.006043
v 0.211461 0.000000 -0.439516
v 0.211461 0.231935 -0.439516
l 57 58
l 57 59
l 58 59
o vibri010_vibri011
v 0.000000 2.540998 -0.616458
v 0.000000 2.809554 -0.463870
v 0.000000 2.913314 -0.238038
v 0.000000 2.943832 0.000000
v 0.000000 2.925522 0.238038
v 0.000000 2.821761 0.469973
v 0.000000 2.559309 0.622562
v 0.000000 2.290752 0.476077
v 0.000000 2.205303 0.256349
v 0.000000 2.156474 0.012207
v 0.000000 2.199199 -0.262453
v 0.000000 2.278545 -0.457766
v 0.000000 2.254131 0.341799
v 0.000000 2.931625 -0.006104
v 0.000000 2.248028 -0.335695
vn 1.0000 0.0000 0.0000
usemtl None
s off
f 72//2 74//2 73//2
l 60 61
l 61 62
l 62 63
l 63 64
l 64 65
l 65 66
l 66 67
l 67 68
l 68 69
l 69 70
l 60 71
l 70 71
o vibri012
v 0.000000 2.535221 -0.616458
v 0.000000 2.828192 -0.463870
v 0.000000 2.925848 -0.238038
v 0.000000 2.944159 0.000000
v 0.000000 2.925848 0.238038
v 0.000000 2.822088 0.469973
v 0.000000 2.559635 0.622562
v 0.000000 2.291079 0.476077
v 0.000000 2.931952 -0.006104
v 0.000000 2.132387 0.091553
v 0.000000 2.120180 -0.183106
v 0.000000 2.712224 0.274660
v 0.000000 2.248354 -0.335695
v 0.000000 2.254458 0.341799
vn 1.0000 0.0000 0.0000
usemtl None
s off
f 88//3 87//3 83//3
l 75 76
l 76 77
l 77 78
l 78 79
l 79 80
l 80 81
l 81 82
l 85 86
l 82 84
l 84 85
l 75 86
o vibri013
v 0.000000 2.609686 -0.573734
v 0.000000 2.811103 -0.463870
v 0.000000 2.914864 -0.238038
v 0.000000 2.945381 0.000000
v 0.000000 2.927071 0.238038
v 0.000000 2.823310 0.469973
v 0.000000 2.560858 0.622562
v 0.000000 2.292302 0.476077
v 0.000000 2.206852 0.256349
v 0.000000 2.158024 0.012207
v 0.000000 2.170231 -0.128175
v 0.000000 2.359441 0.311281
v 0.000000 2.255680 0.341799
v 0.000000 2.933174 -0.006104
v 0.000000 2.249577 -0.335695
vn 1.0000 0.0000 0.0000
usemtl None
s off
f 101//4 103//4 102//4
l 89 90
l 90 91
l 91 92
l 92 93
l 93 94
l 94 95
l 95 96
l 96 97
l 97 98
l 98 99
l 89 100
l 99 100
o vibri014
v -0.071993 0.000000 0.000000
v -0.071993 0.585941 -0.244142
v -0.071993 1.220710 0.000000
l 104 105
l 105 106
o vibri011_vibri015
v 0.000000 2.814943 -0.298291
v 0.000000 2.869875 -0.347119
v 0.000000 2.869875 -0.408155
v 0.000000 2.814943 -0.456983
v 0.000000 2.729493 -0.456983
v 0.000000 2.674562 -0.408155
v 0.000000 2.674562 -0.347119
v 0.000000 2.729493 -0.298291
v 0.000000 2.772218 -0.151806
v 0.000000 2.967532 -0.218945
v 0.000000 3.046878 -0.377637
v 0.000000 2.967532 -0.536329
v 0.000000 2.772218 -0.603468
v 0.000000 2.576905 -0.536329
v 0.000000 2.497559 -0.377637
v 0.000000 2.576905 -0.218945
v 0.000000 2.668458 -0.200634
v 0.000000 3.016360 -0.377637
v 0.000000 2.668458 -0.554640
vn 1.0000 0.0000 0.0000
usemtl None
s off
f 123//5 125//5 124//5
l 107 108
l 108 109
l 109 110
l 110 111
l 111 112
l 112 113
l 107 114
l 114 115
l 107 116
l 108 117
l 109 118
l 110 119
l 111 120
l 112 121
l 113 122
l 107 115
l 108 116
l 109 117
l 110 118
l 113 114
l 111 119
l 112 120
l 115 116
l 113 121
l 116 117
l 114 122
l 117 118
l 115 122
l 118 119
l 119 120
l 120 121
l 121 122
